<?xml version="1.0" standalone="no"?>
<!DOCTYPE svg PUBLIC "-//W3C//DTD SVG 20010904//EN"
 "http://www.w3.org/TR/2001/REC-SVG-20010904/DTD/svg10.dtd">
<svg version="1.0" xmlns="http://www.w3.org/2000/svg"
 width="220.000000pt" height="220.000000pt" viewBox="0 0 220.000000 220.000000"
 preserveAspectRatio="xMidYMid meet">
<metadata>
Created by potrace 1.11, written by Peter Selinger 2001-2013
</metadata>
<g transform="translate(0.000000,220.000000) scale(0.100000,-0.100000)"
fill="#000000" stroke="none">
<path d="M938 2111 c-24 -9 -56 -25 -69 -36 -26 -21 -75 -95 -64 -95 4 0 3 -6
-2 -12 -10 -14 -16 -54 -15 -104 1 -28 -5 -34 -49 -54 -27 -13 -49 -26 -49
-30 0 -3 -15 -14 -32 -24 -40 -23 -162 -146 -189 -190 l-19 -31 0 45 c0 63
-18 91 -75 122 -62 34 -83 34 -143 4 -111 -57 -144 -127 -102 -224 12 -28 36
-64 53 -80 18 -16 40 -40 49 -53 9 -13 37 -51 61 -85 43 -58 45 -65 50 -145 7
-104 13 -148 31 -199 7 -21 9 -41 4 -42 -13 -5 -12 -312 1 -316 14 -5 14 -89
0 -94 -14 -5 -15 -378 -1 -387 14 -8 1439 -8 1447 1 7 7 7 399 0 406 -3 3 -33
5 -69 4 l-64 0 0 33 c0 19 6 36 12 38 8 3 11 20 10 43 -4 51 6 60 66 58 l50
-3 0 107 c0 59 -4 114 -10 122 -5 9 -5 19 1 26 13 16 30 108 36 198 4 67 9 84
33 115 30 39 77 116 86 143 3 10 15 20 25 23 10 4 19 10 19 14 0 4 8 16 18 27
45 49 60 132 33 182 -27 50 -149 119 -189 106 -85 -28 -132 -76 -132 -133 0
-41 -11 -39 -46 7 -101 133 -261 238 -429 281 -28 7 -41 16 -41 28 -2 34 -13
75 -25 89 -6 8 -8 14 -5 14 8 0 -7 19 -44 56 -54 55 -144 74 -222 45z"/>
</g>
</svg>
